<svg width="54" height="79" viewBox="0 0 54 79" fill="none" xmlns="http://www.w3.org/2000/svg">
<path d="M47.6243 0.89422C47.5809 0.845993 47.5423 0.797766 47.5037 0.749539C46.8093 -0.099259 45.5602 -0.248763 44.6873 0.411949C44.639 0.45053 44.586 0.489112 44.5378 0.527694C37.8921 5.57708 33.5902 13.5683 33.5902 22.5386C33.5902 24.2506 33.7445 25.9241 34.0484 27.5494C34.1882 28.3355 34.3667 29.1071 34.5789 29.8691C35.0949 31.7596 35.8135 33.5681 36.7057 35.2753C37.5786 36.9633 38.6299 38.5451 39.8211 40.0064C39.961 40.18 40.1009 40.344 40.2455 40.5128C40.2359 40.5225 40.2263 40.5321 40.2214 40.5466C39.6668 41.3423 39.1556 42.167 38.6926 43.0254C38.2779 43.7778 37.9017 44.5446 37.5593 45.3403C37.2651 46.0203 36.9999 46.7148 36.7587 47.4238C36.1945 49.1021 35.7845 50.8527 35.5482 52.6564C35.4518 53.3895 35.3843 54.1322 35.3457 54.8845C35.3264 55.333 35.3167 55.7912 35.3167 56.2493C35.3167 59.2153 35.7845 62.0703 36.6574 64.7518C37.0047 65.8272 37.4146 66.8786 37.8921 67.8913C38.1862 68.5279 38.5045 69.1453 38.847 69.7481C39.3726 70.6933 39.9562 71.6 40.5928 72.4681C40.7712 72.7141 40.9545 72.96 41.1426 73.2012C40.8484 73.4037 40.5542 73.6063 40.2552 73.7992C38.7409 74.783 37.1108 75.598 35.3891 76.2298C35.3794 76.2298 35.3698 76.2346 35.3601 76.2395C35.1528 76.3263 34.9454 76.3986 34.7235 76.4565C34.2702 76.5867 33.7879 76.659 33.2864 76.659C31.1306 76.659 29.2691 75.3714 28.4347 73.5291C28.2515 73.1336 28.1212 72.7141 28.0441 72.2704C27.9959 72.0196 27.9669 71.7592 27.9621 71.4891C27.9573 71.436 27.9573 71.383 27.9573 71.3251C27.9573 70.9297 28.0007 70.539 28.0875 70.1677C28.5312 68.1566 30.113 66.5748 32.1241 66.1262C32.2254 66.1069 32.3218 66.0877 32.4135 66.0684C34.2075 65.6488 34.2943 64.5106 34.2702 64.1296V64.1103C34.2702 64.0718 34.2606 64.038 34.2557 63.9994C33.9423 63.956 33.6191 63.9367 33.2864 63.9367C32.9102 63.9367 32.5388 63.9608 32.1771 64.0187C29.9394 64.3563 28.0344 65.7018 26.9252 67.5682C25.816 65.7018 23.911 64.3563 21.6733 64.0187C21.3116 63.9608 20.9402 63.9367 20.5641 63.9367C20.2313 63.9367 19.9082 63.956 19.5947 63.9994C19.5899 64.038 19.585 64.0718 19.5802 64.1103V64.1296C19.5561 64.5106 19.6429 65.6488 21.437 66.0684C21.5286 66.0877 21.625 66.1069 21.7263 66.1262C23.7374 66.5748 25.3192 68.1566 25.7629 70.1677C25.8497 70.539 25.8932 70.9297 25.8932 71.3251C25.8932 71.383 25.8932 71.436 25.8883 71.4891C25.8883 71.7592 25.8546 72.0196 25.8063 72.2704C25.7292 72.7141 25.599 73.1336 25.4157 73.5291C24.5814 75.3714 22.7198 76.659 20.5641 76.659C20.0625 76.659 19.5802 76.5867 19.1269 76.4565C18.905 76.3986 18.6977 76.3263 18.4903 76.2395C18.4806 76.2346 18.471 76.2298 18.4613 76.2298C16.7396 75.598 15.1096 74.783 13.5952 73.7992C13.2962 73.6063 13.002 73.4037 12.7078 73.2012C12.8959 72.96 13.0792 72.7141 13.2576 72.4681C13.8942 71.6 14.4778 70.6933 15.0035 69.7481C15.3459 69.1453 15.6642 68.5279 15.9584 67.8913C16.4358 66.8786 16.8457 65.8272 17.193 64.7518C18.0659 62.0703 18.5337 59.2153 18.5337 56.2493C18.5337 55.7912 18.524 55.333 18.5048 54.8845C18.4662 54.1322 18.3987 53.3895 18.3022 52.6564C18.0659 50.8527 17.656 49.1021 17.0917 47.4238C16.8506 46.7148 16.5853 46.0203 16.2911 45.3403C15.9487 44.5446 15.5725 43.7778 15.1578 43.0254C14.6948 42.167 14.1836 41.3423 13.629 40.5466C13.6242 40.5321 13.6145 40.5225 13.6049 40.5128C13.7496 40.344 13.8894 40.18 14.0293 40.0064C15.2205 38.5451 16.2718 36.9633 17.1447 35.2753C18.037 33.5681 18.7555 31.7596 19.2716 29.8691C19.4838 29.1071 19.6622 28.3355 19.8021 27.5494C20.1059 25.9241 20.2602 24.2506 20.2602 22.5386C20.2602 13.5683 15.9584 5.57708 9.31266 0.527694C9.26443 0.489112 9.21138 0.45053 9.16316 0.411949C8.29025 -0.248763 7.04116 -0.099259 6.34669 0.749539C6.30811 0.797766 6.26953 0.845993 6.22612 0.89422C2.33902 5.65906 0 11.7357 0 18.3573C0 23.1414 1.22497 27.6506 3.3759 31.5811C4.18129 33.0521 5.11208 34.4362 6.1586 35.7287C6.26953 35.8637 6.38045 36.0036 6.49619 36.1386C6.93988 36.6691 7.41251 37.1851 7.8996 37.6771C8.84003 38.6464 9.8528 39.5434 10.9331 40.3633C10.9379 40.3681 10.9427 40.3681 10.9427 40.373H10.9476C10.9476 40.373 10.9861 40.4067 11.0054 40.4164C11.0006 40.426 10.9958 40.4308 10.991 40.4356C9.766 41.9596 8.75322 43.662 8.0057 45.4995C7.03634 47.8723 6.50102 50.4717 6.50102 53.1869C6.50102 59.2491 9.16316 64.7035 13.3782 68.4411C12.7127 69.6661 11.9459 70.838 11.0874 71.9328C11.0633 71.9665 11.0344 72.0003 11.0103 72.0292C10.3303 72.8925 10.4942 74.1416 11.3864 74.783C13.3348 76.1816 15.4761 77.3294 17.7572 78.1686C17.7765 78.1686 17.791 78.1782 17.8055 78.183C18.037 78.265 18.2636 78.347 18.4999 78.4193C19.1558 78.6171 19.8503 78.7183 20.5689 78.7183C22.0012 78.7183 23.3371 78.3084 24.4704 77.5995C25.4784 76.9725 26.3224 76.0996 26.9252 75.0724C27.5329 76.0996 28.372 76.9725 29.38 77.5995C30.5133 78.3084 31.8492 78.7183 33.2815 78.7183C34.0001 78.7183 34.6946 78.6171 35.3505 78.4193C35.5868 78.347 35.8135 78.265 36.045 78.183C36.0594 78.183 36.0739 78.1686 36.0932 78.1686C38.3743 77.3294 40.5156 76.1816 42.464 74.783C43.3562 74.1416 43.5153 72.8925 42.8402 72.0292C42.8161 71.9955 42.7871 71.9617 42.763 71.9328C41.9046 70.838 41.1377 69.6661 40.4722 68.4411C44.6873 64.7035 47.3494 59.2491 47.3494 53.1869C47.3494 50.4717 46.8141 47.8723 45.8447 45.4995C45.0972 43.662 44.0844 41.9596 42.8595 40.4356C42.8546 40.4308 42.8498 40.426 42.845 40.4164C42.8643 40.4067 42.8836 40.3922 42.9029 40.373H42.9077C42.9077 40.373 42.9077 40.3681 42.9173 40.3633C43.9976 39.5434 45.0104 38.6464 45.9508 37.6771C46.4379 37.1851 46.9105 36.6691 47.3542 36.1386C47.47 36.0036 47.5809 35.8637 47.6918 35.7287C48.7383 34.4362 49.6691 33.0521 50.4745 31.5811C52.6255 27.6506 53.8504 23.1414 53.8504 18.3573C53.8504 11.7357 51.5114 5.65906 47.6195 0.89422H47.6243ZM15.0613 47.853C15.6545 49.5506 16.0741 51.3302 16.2911 53.1676C14.854 52.994 13.7351 51.769 13.7351 50.2885C13.7351 49.266 14.2656 48.369 15.0613 47.853ZM9.27408 36.1386C8.79181 35.6467 8.33365 35.1307 7.89478 34.5953C7.79833 34.4796 7.70187 34.359 7.60542 34.2385C4.13789 29.8691 2.06412 24.3471 2.06412 18.3573C2.06412 12.3675 4.2681 6.49339 7.93819 2.06132C14.1643 6.73453 18.2009 14.1712 18.2009 22.5386C18.2009 24.5159 17.9791 26.4401 17.5499 28.2872C17.3521 29.1505 17.111 29.9945 16.8264 30.8192C15.8185 33.7658 14.2849 36.4714 12.3413 38.8249C12.3365 38.8249 12.3317 38.8297 12.3269 38.8345C11.2417 38.0195 10.2145 37.1176 9.27408 36.1386ZM8.56032 53.1869C8.56032 49.0587 9.93479 45.2487 12.2497 42.1766C13.0358 43.3582 13.7158 44.6073 14.2945 45.9142C12.7368 46.7534 11.671 48.3979 11.671 50.2885C11.671 52.9651 13.8026 55.1497 16.4551 55.2462C16.4696 55.579 16.4792 55.9117 16.4792 56.2493C16.4792 59.8953 15.7124 63.3676 14.3235 66.5121C10.7788 63.1699 8.56032 58.434 8.56032 53.1869ZM38.7939 47.853C39.5897 48.369 40.1202 49.266 40.1202 50.2885C40.1202 51.769 39.0013 52.994 37.5641 53.1676C37.7811 51.3302 38.2007 49.5506 38.7939 47.853ZM45.2949 53.1869C45.2949 58.434 43.0765 63.1699 39.5318 66.5121C38.1428 63.3676 37.376 59.8953 37.376 56.2493C37.376 55.9117 37.3857 55.579 37.4001 55.2462C40.0526 55.1497 42.1843 52.9651 42.1843 50.2885C42.1843 48.3979 41.1185 46.7534 39.5607 45.9142C40.1394 44.6073 40.8195 43.3582 41.6056 42.1766C43.9205 45.2487 45.2949 49.0587 45.2949 53.1869ZM46.2498 34.2385C46.1534 34.359 46.0569 34.4796 45.9605 34.5953C45.5216 35.1307 45.0634 35.6467 44.5812 36.1386C43.6407 37.1176 42.6135 38.0195 41.5284 38.8345C41.5236 38.8297 41.5187 38.8249 41.5139 38.8249C39.5704 36.4714 38.0367 33.7658 37.0288 30.8192C36.7443 29.9945 36.5031 29.1505 36.3054 28.2872C35.8762 26.4401 35.6543 24.5159 35.6543 22.5386C35.6543 14.1712 39.6909 6.73453 45.9171 2.06132C49.5871 6.49339 51.7911 12.1745 51.7911 18.3573C51.7911 24.54 49.7174 29.8691 46.2498 34.2385Z" fill="url(#paint0_linear_373_2600)"/>
<defs>
<linearGradient id="paint0_linear_373_2600" x1="26.93" y1="-2.28395" x2="26.93" y2="109.68" gradientUnits="userSpaceOnUse">
<stop offset="0.08" stop-color="#95108A"/>
<stop offset="1" stop-color="#54237D"/>
</linearGradient>
</defs>
</svg>
